<?xml version="1.0" encoding="utf-8"?>
<svg viewBox="117.343 99.094 240.556 117.626" xmlns="http://www.w3.org/2000/svg">
  <defs>
    <clipPath id="clippath66" transform="">
      <path d="M 0 0 L 340.157 0 L 340.157 198.425 L 0 198.425 Z" style="fill: none; clip-rule: nonzero;"/>
    </clipPath>
    <clipPath id="clippath67" transform="">
      <path d="M 0 0 L 340.157 0 L 340.157 198.425 L 0 198.425 Z" style="fill: none; clip-rule: nonzero;"/>
    </clipPath>
    <clipPath id="clippath68" transform="">
      <path d="M 158.669 171.696 C 137.063 171.696 129.171 175.486 129.171 175.486 L 129.171 175.486 C 129.171 175.486 126.559 169.089 121.891 163.003 L 121.891 163.003 C 117.221 156.918 108.171 149.271 108.171 149.271 L 108.171 149.271 C 108.171 149.271 123.247 160.975 130.794 160.35 L 130.794 160.35 C 138.342 159.727 134.937 151.768 128.255 136.164 L 128.255 136.164 C 121.573 120.56 108.211 92.477 108.211 92.477 L 108.211 92.477 C 108.211 92.477 111.335 89.044 113.376 82.958 L 113.376 82.958 C 115.416 76.873 114.087 63.297 114.087 63.297 L 114.087 63.297 C 114.087 63.297 129.116 108.077 132.349 117.907 L 132.349 117.907 C 135.581 127.738 144.089 148.96 147.082 156.293 L 147.082 156.293 C 149.587 162.429 160.118 162.429 157.613 156.293 L 157.613 156.293 C 154.62 148.96 145.801 127.738 141.007 117.907 L 141.007 117.907 C 136.214 108.077 117.13 63.297 117.13 63.297 L 117.13 63.297 C 117.13 63.297 126.884 76.873 133.893 82.958 L 133.893 82.958 C 140.902 89.044 146.83 92.477 146.83 92.477 L 146.83 92.477 C 146.83 92.477 153.949 120.56 160.007 136.164 L 160.007 136.164 C 166.065 151.768 169.158 159.727 177.214 160.35 L 177.214 160.35 C 185.271 160.975 190.793 149.271 190.793 149.271 L 190.793 149.271 C 190.793 149.271 187.985 156.918 188.285 163.003 L 188.285 163.003 C 188.584 169.089 191.196 175.486 191.196 175.486 L 191.196 175.486 C 191.196 175.486 180.276 171.696 158.669 171.696" style="fill: none; clip-rule: nonzero;"/>
    </clipPath>
    <linearGradient id="shading2" gradientUnits="userSpaceOnUse" x1="0" y1="0" x2="1" y2="0">
      <stop offset="0" style="stop-color: rgb(54, 109, 161);"/>
      <stop offset="0.1" style="stop-color: rgb(54, 109, 161);"/>
      <stop offset="0.2" style="stop-color: rgb(54, 109, 161);"/>
      <stop offset="0.3" style="stop-color: rgb(66, 108, 160);"/>
      <stop offset="0.4" style="stop-color: rgb(83, 106, 157);"/>
      <stop offset="0.5" style="stop-color: rgb(97, 103, 153);"/>
      <stop offset="0.6" style="stop-color: rgb(109, 100, 150);"/>
      <stop offset="0.7" style="stop-color: rgb(119, 96, 146);"/>
      <stop offset="0.8" style="stop-color: rgb(121, 95, 145);"/>
      <stop offset="0.9" style="stop-color: rgb(121, 95, 145);"/>
      <stop offset="1" style="stop-color: rgb(121, 95, 145);"/>
    </linearGradient>
    <clipPath id="clippath69" transform="">
      <path d="M 0 0 L 340.157 0 L 340.157 198.425 L 0 198.425 Z" style="fill: none; clip-rule: nonzero;"/>
    </clipPath>
  </defs>
  <g style="clip-path: url(#clippath66);" transform="matrix(1, 0, 0, -1, 97.622513, 280.017029)">
    <g transform="translate(39.9987 112.3644)">
      <path d="M 0 0 L 3.558 9.132 L -8.592 9.132 L 4.383 42.409 C 1.165 42.409 -1.797 41.553 -4.505 39.842 C -7.219 38.146 -9.042 36.094 -9.973 33.683 L -19.706 8.726 C -20.649 6.315 -20.426 4.26 -19.04 2.559 C -17.67 0.853 -15.536 0 -12.638 0 Z" style="fill: rgb(54, 109, 161); fill-opacity: 1;"/>
    </g>
  </g>
  <g style="clip-path: url(#clippath66);" transform="matrix(1, 0, 0, -1, 97.622513, 280.017029)">
    <g transform="translate(90.4649 112.5217)">
      <path d="M 0 0 L 3.558 9.132 L -8.592 9.132 L 4.383 42.409 C 1.165 42.409 -1.797 41.553 -4.505 39.842 C -7.219 38.146 -9.042 36.094 -9.973 33.683 L -19.706 8.726 C -20.649 6.315 -20.426 4.26 -19.04 2.559 C -17.67 0.853 -15.536 0 -12.638 0 Z" style="fill: rgb(54, 109, 161); fill-opacity: 1;"/>
    </g>
  </g>
  <g style="clip-path: url(#clippath66);" transform="matrix(1, 0, 0, -1, 97.622513, 280.017029)">
    <g transform="translate(56.9262 133.9751)">
      <path d="M 0 0 L 1.308 3.347 L 10.31 3.347 L 9.01 0 Z M 5.06 -21.611 L 8.618 -12.479 L -4.866 -12.479 L -3.558 -9.132 L 13.455 -9.132 L 21.88 12.479 L 4.379 12.479 C 1.476 12.479 -1.324 11.623 -4.022 9.912 C -6.73 8.211 -8.555 6.158 -9.497 3.753 L -15.981 -12.885 C -16.923 -15.301 -16.701 -17.356 -15.314 -19.052 C -13.939 -20.758 -11.805 -21.611 -8.912 -21.611 Z" style="fill: rgb(54, 109, 161); fill-opacity: 1;"/>
    </g>
  </g>
  <g style="clip-path: url(#clippath66);" transform="matrix(1, 0, 0, -1, 97.622513, 280.017029)">
    <g transform="translate(107.3923 134.1324)">
      <path d="M 0 0 L 1.308 3.347 L 10.31 3.347 L 9.01 0 Z M 5.06 -21.611 L 8.618 -12.479 L -4.866 -12.479 L -3.558 -9.132 L 13.455 -9.132 L 21.88 12.479 L 4.379 12.479 C 1.476 12.479 -1.324 11.623 -4.022 9.912 C -6.73 8.211 -8.555 6.158 -9.497 3.753 L -15.981 -12.885 C -16.923 -15.301 -16.701 -17.356 -15.314 -19.052 C -13.939 -20.758 -11.805 -21.611 -8.912 -21.611 Z" style="fill: rgb(54, 109, 161); fill-opacity: 1;"/>
    </g>
  </g>
  <g style="clip-path: url(#clippath66);" transform="matrix(1, 0, 0, -1, 97.622513, 280.017029)">
    <g transform="translate(165.5712 112.5217)">
      <path d="M 0 0 L 9.725 24.958 L 20.579 24.958 L 24.138 34.09 L 12.796 34.09 C 9.904 34.09 7.106 33.234 4.403 31.522 C 1.695 29.827 -0.13 27.774 -1.072 25.364 L -10.96 0 Z" style="fill: rgb(121, 95, 145); fill-opacity: 1;"/>
    </g>
  </g>
  <g transform="matrix(1, 0, 0, -1, 286.91452, 167.495331)">
    <path d="M 0 0 L 13.283 34.09 L 2.332 34.09 L -10.96 0 Z" style="fill: rgb(121, 95, 145); fill-opacity: 1;"/>
  </g>
  <g style="clip-path: url(#clippath67);" transform="matrix(1, 0, 0, -1, 97.622513, 280.017029)">
    <g transform="translate(219.5915 112.5217)">
      <path d="M 0 0 L 3.558 9.132 L -13.773 9.132 L -7.598 24.958 L 2.069 24.958 L 5.627 34.09 L -4.527 34.09 C -7.431 34.09 -10.231 33.234 -12.928 31.522 C -15.636 29.822 -17.461 27.769 -18.404 25.364 L -24.887 8.726 C -25.829 6.31 -25.607 4.254 -24.221 2.559 C -22.845 0.853 -20.711 0 -17.819 0 Z" style="fill: rgb(121, 95, 145); fill-opacity: 1;"/>
    </g>
  </g>
  <g style="clip-path: url(#clippath67);" transform="matrix(1, 0, 0, -1, 97.622513, 280.017029)">
    <g transform="translate(232.7839 104.2024)">
      <path d="M 0 0 C 3.212 0 6.172 0.856 8.88 2.567 C 11.442 4.165 13.213 6.082 14.193 8.319 L 14.201 8.319 L 27.493 42.409 L 7.036 42.409 C 4.143 42.409 1.346 41.553 -1.357 39.842 C -4.065 38.146 -5.89 36.094 -6.833 33.683 L -16.72 8.319 L -5.76 8.319 L -2.519 16.639 L 6.491 16.639 Z M 1.04 25.77 L 3.965 33.277 L 12.975 33.277 L 10.05 25.77 Z" style="fill: rgb(121, 95, 145); fill-opacity: 1;"/>
    </g>
  </g>
  <g style="clip-path: url(#clippath67);" transform="matrix(1, 0, 0, -1, 97.622513, 280.017029)">
    <g transform="translate(203.25 158.99)">
      <path d="M 0 0 C 0.712 -0.08 1.452 0.153 1.998 0.699 C 2.682 1.383 2.875 2.372 2.577 3.228 L 1.485 2.136 C 1.072 1.723 0.396 1.723 -0.017 2.136 C -0.43 2.548 -0.43 3.224 -0.017 3.637 L 1.077 4.731 C 0.22 5.03 -0.768 4.836 -1.453 4.151 C -1.967 3.636 -2.204 2.95 -2.163 2.278 C -2.132 1.761 -2.363 1.263 -2.766 0.939 C -6.101 -1.743 -10.163 -5.381 -10.599 -5.817 C -11.326 -6.543 -11.326 -7.721 -10.599 -8.447 C -9.873 -9.173 -8.695 -9.173 -7.969 -8.447 C -7.526 -8.004 -3.781 -3.822 -1.089 -0.459 C -0.827 -0.132 -0.417 0.047 0 0 M -8.244 -7.521 C -8.623 -7.855 -9.201 -7.855 -9.58 -7.521 C -10.04 -7.116 -10.04 -6.403 -9.58 -5.999 C -9.201 -5.665 -8.623 -5.665 -8.244 -5.999 C -7.784 -6.403 -7.784 -7.116 -8.244 -7.521" style="fill: rgb(54, 109, 161); fill-opacity: 1;"/>
    </g>
  </g>
  <g style="clip-path: url(#clippath67);" transform="matrix(1, 0, 0, -1, 97.622513, 280.017029)">
    <g transform="translate(193.544 154.4817)">
      <path d="M 0 0 C 0.4 0.358 0.883 0.786 1.42 1.257 C 1.116 2.527 1.459 3.92 2.449 4.91 C 3.604 6.065 5.305 6.34 6.72 5.735 C 6.753 5.763 6.786 5.792 6.816 5.823 C 7.069 6.075 7.202 6.418 7.181 6.764 C 7.168 6.984 7.181 7.203 7.218 7.417 C 6.879 7.547 6.53 7.644 6.176 7.706 L 5.842 9.268 L 4.545 9.268 L 4.211 7.706 C 3.421 7.567 2.654 7.257 1.971 6.779 L 0.631 7.647 L -0.287 6.729 L 0.581 5.389 C 0.102 4.706 -0.207 3.939 -0.346 3.149 L -1.908 2.815 L -1.908 1.517 L -0.346 1.184 C -0.275 0.78 -0.16 0.383 0 0" style="fill: rgb(121, 95, 145); fill-opacity: 1;"/>
    </g>
  </g>
  <g style="clip-path: url(#clippath67);" transform="matrix(1, 0, 0, -1, 97.622513, 280.017029)">
    <g transform="translate(203.9961 158.6513)">
      <path d="M 0 0 C -0.256 -0.043 -0.521 -0.051 -0.786 -0.022 C -1.043 0.007 -1.298 -0.085 -1.486 -0.273 C -1.509 -0.296 -1.532 -0.321 -1.552 -0.347 C -1.594 -0.399 -1.636 -0.451 -1.678 -0.504 C -1.089 -1.914 -1.367 -3.6 -2.514 -4.748 C -3.498 -5.731 -4.877 -6.076 -6.139 -5.783 C -6.611 -6.322 -7.04 -6.806 -7.399 -7.208 C -7.024 -7.362 -6.636 -7.474 -6.241 -7.543 L -5.907 -9.105 L -4.61 -9.105 L -4.276 -7.543 C -3.486 -7.404 -2.719 -7.095 -2.036 -6.616 L -0.696 -7.484 L 0.222 -6.566 L -0.646 -5.226 C -0.167 -4.543 0.142 -3.776 0.281 -2.986 L 1.843 -2.652 L 1.843 -1.355 L 0.281 -1.021 C 0.22 -0.674 0.126 -0.332 0 0" style="fill: rgb(121, 95, 145); fill-opacity: 1;"/>
    </g>
  </g>
  <g style="clip-path: url(#clippath68);" transform="matrix(1, 0, 0, -1, 97.622513, 280.017029)">
    <g transform="matrix(82.6223602 0 -33.7283579 -82.6223602 78.4864504 76.5560226)">
      <rect x="-1.552076031538903" y="-1.4750120561189197" width="5.097393394919244" height="2.4015895880931275" style="fill: url(#shading2);"/>
    </g>
  </g>
  <g transform="matrix(1, 0, 0, -1, 165.346115, 172.643433)">
    <path d="M 0 0 L -5.999 0 L -1.2 -2.731 L -8.647 -10.178 L 1.614 -10.178 Z" style="fill: rgb(61, 61, 59); fill-opacity: 1;"/>
  </g>
  <g transform="matrix(1, 0, 0, -1, 297.101013, 172.643433)">
    <path d="M 0 0 L 5.999 0 L 1.2 -2.731 L 8.647 -10.178 L -1.614 -10.178 Z" style="fill: rgb(61, 61, 59); fill-opacity: 1;"/>
  </g>
  <g transform="matrix(1, 0, 0, -1, 296.32991, 170.325127)">
    <path d="M 0 0 L -2.358 -14.16 L -127.773 -14.16 L -130.134 0 Z" style="fill: rgb(61, 61, 59); fill-opacity: 1;"/>
  </g>
  <g style="clip-path: url(#clippath69);" transform="matrix(1, 0, 0, -1, 97.622513, 280.017029)">
    <g transform="translate(79.0029 149.0788)">
      <path d="M 0 0 L -2.791 1.709 L -3.532 4.045 L -5.469 5.298 L -5.868 9.342 L -9.399 8.887 L -11.507 11.051 L -14.014 10.254 L -16.862 10.767 L -19.312 9.912 L -19.71 12.362 L -18.97 14.526 L -20.166 15.609 L -22.616 15.381 L -24.496 14.242 L -26.262 14.242 L -27.572 12.931 L -28.255 12.931 L -28.711 11.336 L -30.42 11.792 L -32.927 10.767 L -35.661 11.393 L -33.211 11.507 L -29.907 12.817 L -29.167 12.476 L -28.711 13.843 L -27.971 13.729 L -27.401 15.324 L -29.281 16.805 L -30.42 16.178 L -32.243 17.147 L -34.579 16.52 L -34.237 17.717 L -36.914 17.318 L -38.167 18.856 L -39.364 19.483 L -40.389 21.362 L -38.737 19.938 L -37.37 19.312 L -36.345 18.229 L -33.382 18.799 L -33.097 17.717 L -31.901 18.058 L -30.477 17.318 L -28.939 17.944 L -26.034 15.609 L -24.723 15.609 L -22.16 17.375 L -21.704 16.463 L -19.596 17.09 L -17.717 14.413 L -18.4 11.849 L -16.691 12.134 L -15.153 11.507 L -14.071 12.647 L -13.672 11.564 L -12.305 14.128 L -14.469 16.235 L -12.134 17.546 L -12.134 18.685 L -10.026 19.71 L -10.596 21.021 L -12.76 21.021 L -14.185 21.932 L -12.704 22.445 L -12.077 23.983 L -14.811 26.148 L -14.811 28.483 L -16.691 28.597 L -16.691 29.167 L -20.052 30.705 L -15.723 29.623 L -15.324 29.281 L -13.672 29.281 L -13.9 26.489 L -10.881 23.926 L -11.735 21.875 L -9.001 21.989 L -9.399 21.021 L -7.861 20.337 L -6.494 21.135 L -6.152 20.451 L -5.184 21.362 L -5.697 23.926 L -6.722 24.439 L -5.583 26.148 L -6.494 28.141 L -4.671 29.053 L -4.671 29.907 L -3.703 30.021 L -3.019 31.844 L -2.734 29.509 L -3.76 29.338 L -3.76 28.255 L -5.355 27.8 L -4.216 25.806 L -5.412 24.837 L -3.361 23.926 L -4.443 23.47 C -4.443 23.47 -4.045 20.964 -4.045 20.793 C -4.045 20.622 -6.551 19.653 -6.551 19.653 L -6.779 20.337 L -10.995 18.343 L -11.051 16.805 L -12.59 15.951 L -11.165 14.356 L -11.735 12.419 L -10.311 12.419 L -9.286 9.798 L -5.07 10.482 L -4.614 5.64 L -2.791 5.583 L -2.905 4.785 L -1.367 4.272 L -2.507 3.247 L -1.937 2.108 Z" style="fill: rgb(54, 109, 161); fill-opacity: 1;"/>
    </g>
  </g>
  <g style="clip-path: url(#clippath69);" transform="matrix(1, 0, 0, -1, 97.622513, 280.017029)">
    <g transform="translate(80.0205 103.7925)">
      <path d="M 0 0 C 0 0.797 -0.568 1.195 -1.704 1.195 C -2.83 1.195 -3.393 0.78 -3.393 -0.051 L -3.393 -3.586 C -3.393 -4.417 -2.83 -4.832 -1.704 -4.832 C -0.568 -4.832 0 -4.434 0 -3.637 L 0 -2.436 L -1.45 -2.436 L -1.45 -3.627 C -1.45 -3.827 -1.531 -3.927 -1.694 -3.927 C -1.86 -3.927 -1.943 -3.827 -1.943 -3.627 L -1.943 -2.248 L 0 -2.248 Z M -1.943 -1.363 L -1.943 -0.01 C -1.943 0.183 -1.86 0.28 -1.694 0.28 C -1.531 0.28 -1.45 0.183 -1.45 -0.01 L -1.45 -1.363 Z M 3.913 -4.751 C 4.347 -4.751 4.721 -4.631 5.034 -4.392 C 5.348 -4.153 5.505 -3.793 5.505 -3.311 L 5.505 -1.897 C 5.505 -1.358 5.176 -1.007 4.518 -0.844 C 5.142 -0.634 5.454 -0.273 5.454 0.239 L 5.454 1.251 C 5.454 1.702 5.288 2.03 4.955 2.236 C 4.623 2.441 4.231 2.543 3.78 2.543 L 1.893 2.543 L 1.893 -4.751 Z M 3.496 -0.407 L 3.496 1.607 C 3.794 1.607 3.943 1.48 3.943 1.225 L 3.943 -0.019 C 3.943 -0.278 3.794 -0.407 3.496 -0.407 M 3.496 -3.815 L 3.496 -1.2 C 3.794 -1.2 3.943 -1.328 3.943 -1.582 L 3.943 -3.428 C 3.943 -3.686 3.794 -3.815 3.496 -3.815 M 8.99 2.543 L 7.388 2.543 L 7.388 -4.751 L 8.99 -4.751 Z M 13.696 -0.783 L 14.683 2.543 L 13.197 2.543 L 12.496 0.106 L 12.496 2.543 L 10.893 2.543 L 10.893 -4.751 L 12.496 -4.751 L 12.496 -2.05 L 13.11 -4.751 L 14.871 -4.751 Z M 19.796 -3.815 L 18.265 -3.815 L 18.265 -1.251 L 19.628 -1.251 L 19.628 -0.366 L 18.265 -0.366 L 18.265 1.607 L 19.776 1.607 L 19.776 2.543 L 16.663 2.543 L 16.663 -4.751 L 19.796 -4.751 Z M 28.7 -2.777 L 28.725 -1.979 C 28.725 -1.331 28.393 -0.929 27.728 -0.773 C 28.389 -0.573 28.72 -0.19 28.72 0.376 L 28.72 1.251 C 28.72 1.699 28.553 2.026 28.219 2.233 C 27.885 2.44 27.492 2.543 27.041 2.543 L 25.063 2.543 L 25.063 -4.751 L 26.665 -4.751 L 26.665 -1.251 C 26.997 -1.251 27.164 -1.375 27.164 -1.623 C 27.164 -1.636 27.158 -1.947 27.148 -2.553 L 27.138 -2.991 L 27.138 -3.001 C 27.138 -3.968 27.225 -4.554 27.397 -4.761 L 29 -4.761 C 28.8 -4.605 28.7 -3.944 28.7 -2.777 M 26.665 -0.366 L 26.665 1.607 C 26.994 1.607 27.158 1.48 27.158 1.225 L 27.158 0.021 C 27.158 -0.237 26.994 -0.366 26.665 -0.366 M 33.914 -3.815 L 32.383 -3.815 L 32.383 -1.251 L 33.747 -1.251 L 33.747 -0.366 L 32.383 -0.366 L 32.383 1.607 L 33.894 1.607 L 33.894 2.543 L 30.781 2.543 L 30.781 -4.751 L 33.914 -4.751 Z M 39.816 2.543 L 38.478 2.543 L 38.478 -0.783 L 37.563 2.543 L 35.742 2.543 L 35.742 -4.751 L 37.079 -4.751 L 37.079 -0.865 L 38.168 -4.751 L 39.816 -4.751 Z M 45.071 2.543 L 41.679 2.543 L 41.679 1.592 L 42.574 1.592 L 42.574 -4.751 L 44.176 -4.751 L 44.176 1.592 L 45.071 1.592 Z M 50.067 2.543 L 48.036 2.543 L 46.838 -4.751 L 48.425 -4.751 L 48.699 -2.793 L 49.41 -2.793 L 49.68 -4.751 L 51.268 -4.751 Z M 48.832 -1.78 L 49.05 0.397 L 49.281 -1.78 Z M 56.106 -3.815 L 54.702 -3.815 L 54.702 2.543 L 53.1 2.543 L 53.1 -4.751 L 56.106 -4.751 Z M 65.463 -1.897 L 63.443 -1.897 L 63.443 -3.51 C 63.443 -3.713 63.344 -3.815 63.146 -3.815 C 62.951 -3.815 62.853 -3.713 62.853 -3.51 L 62.853 -1.76 C 62.853 -1.512 62.891 -1.366 62.968 -1.32 C 63.044 -1.274 63.201 -1.251 63.438 -1.251 L 63.438 -0.366 C 63.201 -0.366 63.041 -0.338 62.957 -0.282 C 62.874 -0.226 62.833 -0.086 62.833 0.137 L 62.833 1.292 C 62.833 1.492 62.93 1.592 63.125 1.592 C 63.341 1.592 63.448 1.389 63.448 0.982 L 63.418 0.376 L 64.796 0.376 L 64.796 1.272 C 64.796 1.716 64.62 2.047 64.268 2.266 C 63.916 2.485 63.517 2.594 63.072 2.594 C 62.606 2.594 62.207 2.475 61.875 2.238 C 61.544 2.001 61.378 1.685 61.378 1.292 L 61.378 0.219 C 61.378 -0.27 61.682 -0.617 62.289 -0.824 C 61.651 -0.97 61.332 -1.365 61.332 -2.009 L 61.332 -3.378 C 61.332 -3.883 61.512 -4.252 61.872 -4.484 C 62.232 -4.716 62.657 -4.832 63.146 -4.832 C 63.641 -4.832 64.064 -4.729 64.414 -4.522 C 64.764 -4.315 64.939 -4.027 64.939 -3.657 L 64.939 -2.732 L 65.463 -2.732 Z M 70.75 -3.494 C 70.75 -4.376 71.347 -4.817 72.543 -4.817 C 73.782 -4.817 74.402 -4.332 74.402 -3.362 L 74.402 -2.431 C 74.402 -2.109 74.311 -1.821 74.129 -1.567 C 73.947 -1.312 73.521 -0.865 72.852 -0.224 C 72.491 0.136 72.311 0.451 72.311 0.722 L 72.281 1.195 C 72.281 1.477 72.376 1.618 72.566 1.618 C 72.728 1.618 72.81 1.545 72.81 1.399 L 72.81 0.056 L 74.264 0.056 L 74.264 1.317 C 74.264 2.179 73.711 2.609 72.604 2.609 C 71.368 2.609 70.75 2.136 70.75 1.19 L 70.75 0.371 C 70.75 0.1 70.833 -0.149 70.999 -0.376 C 71.165 -0.604 71.589 -1.048 72.271 -1.709 C 72.623 -2.065 72.8 -2.375 72.8 -2.64 L 72.8 -3.505 C 72.8 -3.671 72.702 -3.754 72.507 -3.754 C 72.305 -3.754 72.204 -3.671 72.204 -3.505 L 72.204 -1.831 L 70.75 -1.831 Z M 79.439 -3.815 L 77.908 -3.815 L 77.908 -1.251 L 79.271 -1.251 L 79.271 -0.366 L 77.908 -0.366 L 77.908 1.607 L 79.418 1.607 L 79.418 2.543 L 76.305 2.543 L 76.305 -4.751 L 79.439 -4.751 Z M 84.923 -2.777 L 84.948 -1.979 C 84.948 -1.331 84.616 -0.929 83.951 -0.773 C 84.613 -0.573 84.943 -0.19 84.943 0.376 L 84.943 1.251 C 84.943 1.699 84.776 2.026 84.442 2.233 C 84.108 2.44 83.716 2.543 83.265 2.543 L 81.286 2.543 L 81.286 -4.751 L 82.888 -4.751 L 82.888 -1.251 C 83.221 -1.251 83.387 -1.375 83.387 -1.623 C 83.387 -1.636 83.382 -1.947 83.372 -2.553 L 83.361 -2.991 L 83.361 -3.001 C 83.361 -3.968 83.448 -4.554 83.621 -4.761 L 85.223 -4.761 C 85.023 -4.605 84.923 -3.944 84.923 -2.777 M 82.888 -0.366 L 82.888 1.607 C 83.217 1.607 83.382 1.48 83.382 1.225 L 83.382 0.021 C 83.382 -0.237 83.217 -0.366 82.888 -0.366 M 89.529 2.543 L 88.978 -2.553 L 88.422 2.543 L 86.862 2.543 L 87.847 -4.751 L 90.111 -4.751 L 91.094 2.543 Z M 94.447 2.543 L 92.845 2.543 L 92.845 -4.751 L 94.447 -4.751 Z M 99.835 1.317 C 99.835 2.179 99.282 2.609 98.177 2.609 C 96.942 2.609 96.325 2.136 96.325 1.19 L 96.325 -3.505 C 96.325 -4.38 96.942 -4.817 98.177 -4.817 C 98.604 -4.817 98.987 -4.713 99.326 -4.504 C 99.665 -4.296 99.835 -4.018 99.835 -3.673 L 99.835 -1.821 L 98.38 -1.821 L 98.38 -3.622 C 98.38 -3.74 98.306 -3.8 98.159 -3.8 C 98.005 -3.8 97.927 -3.74 97.927 -3.622 L 97.927 1.44 C 97.927 1.558 98.005 1.618 98.159 1.618 C 98.306 1.618 98.38 1.558 98.38 1.44 L 98.38 -0.005 L 99.835 -0.005 Z M 104.882 -3.815 L 103.351 -3.815 L 103.351 -1.251 L 104.714 -1.251 L 104.714 -0.366 L 103.351 -0.366 L 103.351 1.607 L 104.861 1.607 L 104.861 2.543 L 101.748 2.543 L 101.748 -4.751 L 104.882 -4.751 Z M 106.704 -3.494 C 106.704 -4.376 107.301 -4.817 108.497 -4.817 C 109.736 -4.817 110.356 -4.332 110.356 -3.362 L 110.356 -2.431 C 110.356 -2.109 110.265 -1.821 110.083 -1.567 C 109.901 -1.312 109.476 -0.865 108.806 -0.224 C 108.446 0.136 108.266 0.451 108.266 0.722 L 108.235 1.195 C 108.235 1.477 108.33 1.618 108.52 1.618 C 108.683 1.618 108.764 1.545 108.764 1.399 L 108.764 0.056 L 110.219 0.056 L 110.219 1.317 C 110.219 2.179 109.665 2.609 108.558 2.609 C 107.322 2.609 106.704 2.136 106.704 1.19 L 106.704 0.371 C 106.704 0.1 106.787 -0.149 106.953 -0.376 C 107.119 -0.604 107.543 -1.048 108.225 -1.709 C 108.577 -2.065 108.754 -2.375 108.754 -2.64 L 108.754 -3.505 C 108.754 -3.671 108.656 -3.754 108.461 -3.754 C 108.259 -3.754 108.159 -3.671 108.159 -3.505 L 108.159 -1.831 L 106.704 -1.831 Z" style="fill: rgb(255, 255, 255); fill-opacity: 1;"/>
    </g>
  </g>
</svg>